<?xml version="1.0" encoding="utf-8"?>
<svg width="32px" height="32px" viewBox="-3.2 -3.2 38.40 38.40" version="1.1" fill="#ffffff" stroke="#ffffff" xmlns="http://www.w3.org/2000/svg">
  <g id="SVGRepo_bgCarrier" stroke-width="0" style="" transform="matrix(0.725929, -0.00491, 0, 0.73589, 4.473539, 4.729771)">
    <rect x="-3.2" y="-3.2" width="38.40" height="38.40" rx="19.2" strokewidth="0" style="fill: rgb(30, 30, 30);"/>
  </g>
  <g id="SVGRepo_tracerCarrier" stroke-linecap="round" stroke-linejoin="round"/>
  <g id="SVGRepo_iconCarrier" transform="matrix(1, 0, 0, 1, 2.939231, 0.36505)" style="transform-origin: 13.113px 16px;">
    <g id="icomoon-ignore"/>
    <path d="M13.114 2.887c-7.243 0-13.114 5.871-13.114 13.113s5.871 13.113 13.114 13.113c7.242 0 13.112-5.871 13.112-13.113s-5.87-13.113-13.112-13.113zM13.114 28.064c-6.653 0-12.065-5.412-12.065-12.064s5.412-12.063 12.065-12.063c6.652 0 12.063 5.412 12.063 12.063s-5.411 12.064-12.063 12.064z" fill="#000000"/>
    <path d="M12.318 10.363l-0.742-0.742-6.379 6.379 6.379 6.379 0.742-0.742-5.113-5.113h12.726v-1.049h-12.726z" fill="#000000"/>
  </g>
</svg>